<mxfile host="app.diagrams.net" modified="2021-03-16T04:12:39.372Z" agent="5.0 (Macintosh; Intel Mac OS X 10_15_6) AppleWebKit/605.1.15 (KHTML, like Gecko) Version/14.0.3 Safari/605.1.15" etag="EnpH1PWbvM1W2HzuxyT0" version="14.4.8" type="github">
  <diagram id="nqh-eFb9nkpcU3kw4LIQ" name="Page-1">
    <mxGraphModel dx="946" dy="725" grid="1" gridSize="10" guides="1" tooltips="1" connect="1" arrows="1" fold="1" page="1" pageScale="1" pageWidth="850" pageHeight="1100" math="0" shadow="0">
      <root>
        <mxCell id="0" />
        <mxCell id="1" parent="0" />
        <mxCell id="xHp5DNosXy4V1_-R_v9--1" value="" style="rounded=0;whiteSpace=wrap;html=1;" parent="1" vertex="1">
          <mxGeometry x="230" y="360" width="130" height="40" as="geometry" />
        </mxCell>
        <mxCell id="xHp5DNosXy4V1_-R_v9--2" value="User_Account" style="text;html=1;strokeColor=none;fillColor=none;align=center;verticalAlign=middle;whiteSpace=wrap;rounded=0;" parent="1" vertex="1">
          <mxGeometry x="255" y="365" width="80" height="30" as="geometry" />
        </mxCell>
        <mxCell id="xHp5DNosXy4V1_-R_v9--16" value="Name" style="ellipse;whiteSpace=wrap;html=1;" parent="1" vertex="1">
          <mxGeometry x="125" y="265" width="60" height="30" as="geometry" />
        </mxCell>
        <mxCell id="xHp5DNosXy4V1_-R_v9--17" value="Fname" style="ellipse;whiteSpace=wrap;html=1;" parent="1" vertex="1">
          <mxGeometry x="50" y="190" width="50" height="30" as="geometry" />
        </mxCell>
        <mxCell id="xHp5DNosXy4V1_-R_v9--18" value="Lname" style="ellipse;whiteSpace=wrap;html=1;" parent="1" vertex="1">
          <mxGeometry x="195" y="190" width="60" height="30" as="geometry" />
        </mxCell>
        <mxCell id="xHp5DNosXy4V1_-R_v9--19" value="Sex" style="ellipse;whiteSpace=wrap;html=1;" parent="1" vertex="1">
          <mxGeometry x="210" y="290" width="60" height="30" as="geometry" />
        </mxCell>
        <mxCell id="xHp5DNosXy4V1_-R_v9--20" value="Email" style="ellipse;whiteSpace=wrap;html=1;" parent="1" vertex="1">
          <mxGeometry x="270" y="260" width="50" height="30" as="geometry" />
        </mxCell>
        <mxCell id="xHp5DNosXy4V1_-R_v9--21" value="Address" style="ellipse;whiteSpace=wrap;html=1;" parent="1" vertex="1">
          <mxGeometry x="60" y="340" width="75" height="30" as="geometry" />
        </mxCell>
        <mxCell id="xHp5DNosXy4V1_-R_v9--22" value="Phone" style="ellipse;whiteSpace=wrap;html=1;" parent="1" vertex="1">
          <mxGeometry x="80" y="410" width="60" height="30" as="geometry" />
        </mxCell>
        <mxCell id="xHp5DNosXy4V1_-R_v9--23" value="Password" style="ellipse;whiteSpace=wrap;html=1;" parent="1" vertex="1">
          <mxGeometry x="320" y="300" width="80" height="30" as="geometry" />
        </mxCell>
        <mxCell id="xHp5DNosXy4V1_-R_v9--24" value="" style="endArrow=none;html=1;entryX=0;entryY=0;entryDx=0;entryDy=0;exitX=0.5;exitY=1;exitDx=0;exitDy=0;" parent="1" source="xHp5DNosXy4V1_-R_v9--16" target="xHp5DNosXy4V1_-R_v9--1" edge="1">
          <mxGeometry width="50" height="50" relative="1" as="geometry">
            <mxPoint x="320" y="440" as="sourcePoint" />
            <mxPoint x="370" y="390" as="targetPoint" />
            <Array as="points" />
          </mxGeometry>
        </mxCell>
        <mxCell id="xHp5DNosXy4V1_-R_v9--25" value="" style="endArrow=none;html=1;entryX=1;entryY=0;entryDx=0;entryDy=0;exitX=0;exitY=1;exitDx=0;exitDy=0;" parent="1" source="xHp5DNosXy4V1_-R_v9--18" target="xHp5DNosXy4V1_-R_v9--16" edge="1">
          <mxGeometry width="50" height="50" relative="1" as="geometry">
            <mxPoint x="320" y="440" as="sourcePoint" />
            <mxPoint x="370" y="390" as="targetPoint" />
          </mxGeometry>
        </mxCell>
        <mxCell id="xHp5DNosXy4V1_-R_v9--26" value="" style="endArrow=none;html=1;entryX=0;entryY=0;entryDx=0;entryDy=0;exitX=0.5;exitY=1;exitDx=0;exitDy=0;" parent="1" source="xHp5DNosXy4V1_-R_v9--17" target="xHp5DNosXy4V1_-R_v9--16" edge="1">
          <mxGeometry width="50" height="50" relative="1" as="geometry">
            <mxPoint x="320" y="440" as="sourcePoint" />
            <mxPoint x="370" y="390" as="targetPoint" />
          </mxGeometry>
        </mxCell>
        <mxCell id="xHp5DNosXy4V1_-R_v9--27" value="" style="endArrow=none;html=1;entryX=0.25;entryY=0;entryDx=0;entryDy=0;exitX=0.5;exitY=1;exitDx=0;exitDy=0;" parent="1" source="xHp5DNosXy4V1_-R_v9--19" target="xHp5DNosXy4V1_-R_v9--1" edge="1">
          <mxGeometry width="50" height="50" relative="1" as="geometry">
            <mxPoint x="320" y="440" as="sourcePoint" />
            <mxPoint x="370" y="390" as="targetPoint" />
          </mxGeometry>
        </mxCell>
        <mxCell id="xHp5DNosXy4V1_-R_v9--28" value="" style="endArrow=none;html=1;entryX=0.5;entryY=0;entryDx=0;entryDy=0;exitX=0.5;exitY=1;exitDx=0;exitDy=0;" parent="1" source="xHp5DNosXy4V1_-R_v9--20" target="xHp5DNosXy4V1_-R_v9--1" edge="1">
          <mxGeometry width="50" height="50" relative="1" as="geometry">
            <mxPoint x="320" y="440" as="sourcePoint" />
            <mxPoint x="370" y="390" as="targetPoint" />
          </mxGeometry>
        </mxCell>
        <mxCell id="xHp5DNosXy4V1_-R_v9--29" value="" style="endArrow=none;html=1;entryX=0.75;entryY=0;entryDx=0;entryDy=0;exitX=0.388;exitY=0.967;exitDx=0;exitDy=0;exitPerimeter=0;" parent="1" target="xHp5DNosXy4V1_-R_v9--1" edge="1">
          <mxGeometry width="50" height="50" relative="1" as="geometry">
            <mxPoint x="346.03999999999996" y="329.01" as="sourcePoint" />
            <mxPoint x="370" y="390" as="targetPoint" />
          </mxGeometry>
        </mxCell>
        <mxCell id="xHp5DNosXy4V1_-R_v9--30" value="" style="endArrow=none;html=1;entryX=0;entryY=0.25;entryDx=0;entryDy=0;exitX=1;exitY=0.5;exitDx=0;exitDy=0;" parent="1" source="xHp5DNosXy4V1_-R_v9--21" target="xHp5DNosXy4V1_-R_v9--1" edge="1">
          <mxGeometry width="50" height="50" relative="1" as="geometry">
            <mxPoint x="320" y="440" as="sourcePoint" />
            <mxPoint x="370" y="390" as="targetPoint" />
          </mxGeometry>
        </mxCell>
        <mxCell id="xHp5DNosXy4V1_-R_v9--31" value="" style="endArrow=none;html=1;entryX=0;entryY=0.75;entryDx=0;entryDy=0;exitX=1;exitY=0.5;exitDx=0;exitDy=0;" parent="1" source="xHp5DNosXy4V1_-R_v9--22" target="xHp5DNosXy4V1_-R_v9--1" edge="1">
          <mxGeometry width="50" height="50" relative="1" as="geometry">
            <mxPoint x="320" y="440" as="sourcePoint" />
            <mxPoint x="370" y="390" as="targetPoint" />
          </mxGeometry>
        </mxCell>
        <mxCell id="xHp5DNosXy4V1_-R_v9--33" value="ID" style="ellipse;whiteSpace=wrap;html=1;fontStyle=4" parent="1" vertex="1">
          <mxGeometry x="180" y="440" width="50" height="30" as="geometry" />
        </mxCell>
        <mxCell id="xHp5DNosXy4V1_-R_v9--34" value="" style="endArrow=none;html=1;entryX=0.104;entryY=1.004;entryDx=0;entryDy=0;entryPerimeter=0;exitX=0.5;exitY=0;exitDx=0;exitDy=0;" parent="1" target="xHp5DNosXy4V1_-R_v9--1" edge="1">
          <mxGeometry width="50" height="50" relative="1" as="geometry">
            <mxPoint x="210" y="440" as="sourcePoint" />
            <mxPoint x="750" y="430" as="targetPoint" />
          </mxGeometry>
        </mxCell>
        <mxCell id="xHp5DNosXy4V1_-R_v9--35" value="ID_Pocket" style="ellipse;whiteSpace=wrap;html=1;fontStyle=4" parent="1" vertex="1">
          <mxGeometry x="160" y="670" width="100" height="40" as="geometry" />
        </mxCell>
        <mxCell id="xHp5DNosXy4V1_-R_v9--36" value="Money" style="ellipse;whiteSpace=wrap;html=1;" parent="1" vertex="1">
          <mxGeometry x="325" y="730" width="70" height="40" as="geometry" />
        </mxCell>
        <mxCell id="xHp5DNosXy4V1_-R_v9--37" value="" style="endArrow=none;html=1;entryX=0;entryY=0.25;entryDx=0;entryDy=0;exitX=0.732;exitY=0.034;exitDx=0;exitDy=0;exitPerimeter=0;" parent="1" source="xHp5DNosXy4V1_-R_v9--35" target="bay-avK2EA3vM4gdvUFi-4" edge="1">
          <mxGeometry width="50" height="50" relative="1" as="geometry">
            <mxPoint x="750" y="510" as="sourcePoint" />
            <mxPoint x="398.20000000000005" y="618.4000000000001" as="targetPoint" />
          </mxGeometry>
        </mxCell>
        <mxCell id="xHp5DNosXy4V1_-R_v9--38" value="" style="endArrow=none;html=1;exitX=0.5;exitY=0;exitDx=0;exitDy=0;entryX=0.45;entryY=1;entryDx=0;entryDy=0;entryPerimeter=0;" parent="1" source="xHp5DNosXy4V1_-R_v9--36" target="bay-avK2EA3vM4gdvUFi-4" edge="1">
          <mxGeometry width="50" height="50" relative="1" as="geometry">
            <mxPoint x="750" y="510" as="sourcePoint" />
            <mxPoint x="427.3499999999999" y="631.6600000000001" as="targetPoint" />
          </mxGeometry>
        </mxCell>
        <mxCell id="xHp5DNosXy4V1_-R_v9--43" value="ID_HWD" style="ellipse;whiteSpace=wrap;html=1;fontStyle=4" parent="1" vertex="1">
          <mxGeometry x="445" y="410" width="70" height="30" as="geometry" />
        </mxCell>
        <mxCell id="xHp5DNosXy4V1_-R_v9--44" value="Money" style="ellipse;whiteSpace=wrap;html=1;" parent="1" vertex="1">
          <mxGeometry x="540" y="395" width="60" height="30" as="geometry" />
        </mxCell>
        <mxCell id="xHp5DNosXy4V1_-R_v9--47" value="Time" style="ellipse;whiteSpace=wrap;html=1;" parent="1" vertex="1">
          <mxGeometry x="630" y="425" width="50" height="30" as="geometry" />
        </mxCell>
        <mxCell id="xHp5DNosXy4V1_-R_v9--48" value="Destination" style="ellipse;whiteSpace=wrap;html=1;" parent="1" vertex="1">
          <mxGeometry x="677.5" y="500" width="75" height="40" as="geometry" />
        </mxCell>
        <mxCell id="xHp5DNosXy4V1_-R_v9--49" value="" style="endArrow=none;html=1;entryX=0;entryY=0.25;entryDx=0;entryDy=0;exitX=0.629;exitY=0.967;exitDx=0;exitDy=0;exitPerimeter=0;" parent="1" source="xHp5DNosXy4V1_-R_v9--43" target="bay-avK2EA3vM4gdvUFi-3" edge="1">
          <mxGeometry width="50" height="50" relative="1" as="geometry">
            <mxPoint x="220" y="470" as="sourcePoint" />
            <mxPoint x="518.96" y="471" as="targetPoint" />
          </mxGeometry>
        </mxCell>
        <mxCell id="xHp5DNosXy4V1_-R_v9--50" value="" style="endArrow=none;html=1;entryX=0.417;entryY=0;entryDx=0;entryDy=0;entryPerimeter=0;" parent="1" source="xHp5DNosXy4V1_-R_v9--44" target="bay-avK2EA3vM4gdvUFi-3" edge="1">
          <mxGeometry width="50" height="50" relative="1" as="geometry">
            <mxPoint x="220" y="470" as="sourcePoint" />
            <mxPoint x="560" y="450" as="targetPoint" />
          </mxGeometry>
        </mxCell>
        <mxCell id="xHp5DNosXy4V1_-R_v9--51" value="" style="endArrow=none;html=1;entryX=0.75;entryY=0;entryDx=0;entryDy=0;exitX=0.02;exitY=0.733;exitDx=0;exitDy=0;exitPerimeter=0;" parent="1" source="xHp5DNosXy4V1_-R_v9--47" target="bay-avK2EA3vM4gdvUFi-3" edge="1">
          <mxGeometry width="50" height="50" relative="1" as="geometry">
            <mxPoint x="220" y="470" as="sourcePoint" />
            <mxPoint x="590" y="467.5" as="targetPoint" />
          </mxGeometry>
        </mxCell>
        <mxCell id="xHp5DNosXy4V1_-R_v9--52" value="" style="endArrow=none;html=1;entryX=1;entryY=1;entryDx=0;entryDy=0;exitX=0;exitY=0.5;exitDx=0;exitDy=0;" parent="1" source="xHp5DNosXy4V1_-R_v9--48" target="bay-avK2EA3vM4gdvUFi-3" edge="1">
          <mxGeometry width="50" height="50" relative="1" as="geometry">
            <mxPoint x="220" y="470" as="sourcePoint" />
            <mxPoint x="608.96" y="495.01" as="targetPoint" />
          </mxGeometry>
        </mxCell>
        <mxCell id="xHp5DNosXy4V1_-R_v9--55" value="ID_HD" style="ellipse;whiteSpace=wrap;html=1;fontStyle=4" parent="1" vertex="1">
          <mxGeometry x="420" y="900" width="70" height="30" as="geometry" />
        </mxCell>
        <mxCell id="xHp5DNosXy4V1_-R_v9--56" value="Money" style="ellipse;whiteSpace=wrap;html=1;" parent="1" vertex="1">
          <mxGeometry x="550" y="910" width="70" height="40" as="geometry" />
        </mxCell>
        <mxCell id="xHp5DNosXy4V1_-R_v9--57" value="Time" style="ellipse;whiteSpace=wrap;html=1;" parent="1" vertex="1">
          <mxGeometry x="707.5" y="890" width="55" height="40" as="geometry" />
        </mxCell>
        <mxCell id="xHp5DNosXy4V1_-R_v9--58" value="Destination" style="ellipse;whiteSpace=wrap;html=1;" parent="1" vertex="1">
          <mxGeometry x="730" y="770" width="75" height="50" as="geometry" />
        </mxCell>
        <mxCell id="xHp5DNosXy4V1_-R_v9--61" value="" style="endArrow=none;html=1;entryX=0;entryY=1;entryDx=0;entryDy=0;exitX=0.5;exitY=0;exitDx=0;exitDy=0;" parent="1" source="xHp5DNosXy4V1_-R_v9--55" target="bay-avK2EA3vM4gdvUFi-5" edge="1">
          <mxGeometry width="50" height="50" relative="1" as="geometry">
            <mxPoint x="430" y="710" as="sourcePoint" />
            <mxPoint x="562.5" y="732.5" as="targetPoint" />
          </mxGeometry>
        </mxCell>
        <mxCell id="xHp5DNosXy4V1_-R_v9--62" value="" style="endArrow=none;html=1;entryX=0.4;entryY=0.983;entryDx=0;entryDy=0;exitX=0.357;exitY=0;exitDx=0;exitDy=0;exitPerimeter=0;entryPerimeter=0;" parent="1" source="xHp5DNosXy4V1_-R_v9--56" target="bay-avK2EA3vM4gdvUFi-5" edge="1">
          <mxGeometry width="50" height="50" relative="1" as="geometry">
            <mxPoint x="430" y="710" as="sourcePoint" />
            <mxPoint x="595" y="750" as="targetPoint" />
          </mxGeometry>
        </mxCell>
        <mxCell id="xHp5DNosXy4V1_-R_v9--63" value="" style="endArrow=none;html=1;entryX=0;entryY=0;entryDx=0;entryDy=0;exitX=0.75;exitY=1;exitDx=0;exitDy=0;" parent="1" source="bay-avK2EA3vM4gdvUFi-5" target="xHp5DNosXy4V1_-R_v9--57" edge="1">
          <mxGeometry width="50" height="50" relative="1" as="geometry">
            <mxPoint x="627.5" y="732.5" as="sourcePoint" />
            <mxPoint x="480" y="660" as="targetPoint" />
          </mxGeometry>
        </mxCell>
        <mxCell id="xHp5DNosXy4V1_-R_v9--64" value="" style="endArrow=none;html=1;entryX=0;entryY=0.5;entryDx=0;entryDy=0;exitX=1;exitY=0.5;exitDx=0;exitDy=0;" parent="1" source="bay-avK2EA3vM4gdvUFi-5" target="xHp5DNosXy4V1_-R_v9--58" edge="1">
          <mxGeometry width="50" height="50" relative="1" as="geometry">
            <mxPoint x="627.5" y="697.5" as="sourcePoint" />
            <mxPoint x="480" y="660" as="targetPoint" />
          </mxGeometry>
        </mxCell>
        <mxCell id="xHp5DNosXy4V1_-R_v9--68" value="ID_Credit" style="ellipse;whiteSpace=wrap;html=1;fontStyle=4" parent="1" vertex="1">
          <mxGeometry x="607.5" y="160" width="70" height="30" as="geometry" />
        </mxCell>
        <mxCell id="xHp5DNosXy4V1_-R_v9--69" value="Money" style="ellipse;whiteSpace=wrap;html=1;" parent="1" vertex="1">
          <mxGeometry x="700" y="180" width="70" height="30" as="geometry" />
        </mxCell>
        <mxCell id="xHp5DNosXy4V1_-R_v9--70" value="" style="endArrow=none;html=1;entryX=0.25;entryY=0;entryDx=0;entryDy=0;exitX=0.5;exitY=1;exitDx=0;exitDy=0;" parent="1" source="xHp5DNosXy4V1_-R_v9--68" target="bay-avK2EA3vM4gdvUFi-2" edge="1">
          <mxGeometry width="50" height="50" relative="1" as="geometry">
            <mxPoint x="430" y="410" as="sourcePoint" />
            <mxPoint x="537.5" y="292.5" as="targetPoint" />
          </mxGeometry>
        </mxCell>
        <mxCell id="xHp5DNosXy4V1_-R_v9--71" value="" style="endArrow=none;html=1;entryX=0.75;entryY=0;entryDx=0;entryDy=0;exitX=0.5;exitY=1;exitDx=0;exitDy=0;" parent="1" source="xHp5DNosXy4V1_-R_v9--69" target="bay-avK2EA3vM4gdvUFi-2" edge="1">
          <mxGeometry width="50" height="50" relative="1" as="geometry">
            <mxPoint x="430" y="410" as="sourcePoint" />
            <mxPoint x="582.5" y="292.5" as="targetPoint" />
          </mxGeometry>
        </mxCell>
        <mxCell id="xHp5DNosXy4V1_-R_v9--75" value="ID_HC" style="ellipse;whiteSpace=wrap;html=1;fontStyle=4" parent="1" vertex="1">
          <mxGeometry x="280" y="80" width="60" height="30" as="geometry" />
        </mxCell>
        <mxCell id="xHp5DNosXy4V1_-R_v9--76" value="Money" style="ellipse;whiteSpace=wrap;html=1;" parent="1" vertex="1">
          <mxGeometry x="360" y="30" width="65" height="30" as="geometry" />
        </mxCell>
        <mxCell id="xHp5DNosXy4V1_-R_v9--77" value="Time" style="ellipse;whiteSpace=wrap;html=1;" parent="1" vertex="1">
          <mxGeometry x="465" y="50" width="55" height="30" as="geometry" />
        </mxCell>
        <mxCell id="xHp5DNosXy4V1_-R_v9--78" value="Destination" style="ellipse;whiteSpace=wrap;html=1;" parent="1" vertex="1">
          <mxGeometry x="532.5" y="80" width="75" height="30" as="geometry" />
        </mxCell>
        <mxCell id="xHp5DNosXy4V1_-R_v9--79" value="" style="endArrow=none;html=1;entryX=0;entryY=0.5;entryDx=0;entryDy=0;exitX=1;exitY=1;exitDx=0;exitDy=0;" parent="1" source="xHp5DNosXy4V1_-R_v9--75" target="bay-avK2EA3vM4gdvUFi-1" edge="1">
          <mxGeometry width="50" height="50" relative="1" as="geometry">
            <mxPoint x="430" y="310" as="sourcePoint" />
            <mxPoint x="370" y="125" as="targetPoint" />
          </mxGeometry>
        </mxCell>
        <mxCell id="xHp5DNosXy4V1_-R_v9--80" value="" style="endArrow=none;html=1;entryX=0.25;entryY=0;entryDx=0;entryDy=0;exitX=0;exitY=1;exitDx=0;exitDy=0;" parent="1" source="xHp5DNosXy4V1_-R_v9--76" target="bay-avK2EA3vM4gdvUFi-1" edge="1">
          <mxGeometry width="50" height="50" relative="1" as="geometry">
            <mxPoint x="430" y="310" as="sourcePoint" />
            <mxPoint x="397.5" y="112.5" as="targetPoint" />
          </mxGeometry>
        </mxCell>
        <mxCell id="xHp5DNosXy4V1_-R_v9--81" value="" style="endArrow=none;html=1;entryX=0.75;entryY=0;entryDx=0;entryDy=0;exitX=0;exitY=1;exitDx=0;exitDy=0;" parent="1" source="xHp5DNosXy4V1_-R_v9--77" target="bay-avK2EA3vM4gdvUFi-1" edge="1">
          <mxGeometry width="50" height="50" relative="1" as="geometry">
            <mxPoint x="430" y="310" as="sourcePoint" />
            <mxPoint x="452.5" y="112.5" as="targetPoint" />
          </mxGeometry>
        </mxCell>
        <mxCell id="xHp5DNosXy4V1_-R_v9--82" value="" style="endArrow=none;html=1;exitX=0;exitY=0.5;exitDx=0;exitDy=0;entryX=1;entryY=0.5;entryDx=0;entryDy=0;" parent="1" source="xHp5DNosXy4V1_-R_v9--78" target="bay-avK2EA3vM4gdvUFi-1" edge="1">
          <mxGeometry width="50" height="50" relative="1" as="geometry">
            <mxPoint x="430" y="310" as="sourcePoint" />
            <mxPoint x="490" y="125" as="targetPoint" />
          </mxGeometry>
        </mxCell>
        <mxCell id="bay-avK2EA3vM4gdvUFi-1" value="&lt;span&gt;History_Credit&lt;/span&gt;" style="rounded=0;whiteSpace=wrap;html=1;" vertex="1" parent="1">
          <mxGeometry x="380" y="95" width="120" height="60" as="geometry" />
        </mxCell>
        <mxCell id="bay-avK2EA3vM4gdvUFi-2" value="&lt;span style=&quot;color: rgb(0, 0, 0); font-family: helvetica; font-size: 12px; font-style: normal; font-weight: normal; letter-spacing: normal; text-align: center; text-indent: 0px; text-transform: none; word-spacing: 0px; background-color: rgb(248, 249, 250); text-decoration: none; display: inline; float: none;&quot;&gt;Credit&lt;/span&gt;" style="rounded=0;whiteSpace=wrap;html=1;" vertex="1" parent="1">
          <mxGeometry x="615" y="235" width="120" height="60" as="geometry" />
        </mxCell>
        <mxCell id="bay-avK2EA3vM4gdvUFi-3" value="&lt;span&gt;History_WithDraw&lt;/span&gt;" style="rounded=0;whiteSpace=wrap;html=1;" vertex="1" parent="1">
          <mxGeometry x="510" y="455" width="120" height="60" as="geometry" />
        </mxCell>
        <mxCell id="bay-avK2EA3vM4gdvUFi-4" value="&lt;span&gt;Pocket&lt;/span&gt;" style="rounded=0;whiteSpace=wrap;html=1;" vertex="1" parent="1">
          <mxGeometry x="325" y="600" width="120" height="60" as="geometry" />
        </mxCell>
        <mxCell id="bay-avK2EA3vM4gdvUFi-5" value="&lt;span style=&quot;color: rgb(0, 0, 0); font-family: helvetica; font-size: 12px; font-style: normal; font-weight: normal; letter-spacing: normal; text-align: center; text-indent: 0px; text-transform: none; word-spacing: 0px; background-color: rgb(248, 249, 250); text-decoration: none; display: inline; float: none;&quot;&gt;History_Deposit&lt;/span&gt;" style="rounded=0;whiteSpace=wrap;html=1;" vertex="1" parent="1">
          <mxGeometry x="545" y="730" width="120" height="60" as="geometry" />
        </mxCell>
        <mxCell id="bay-avK2EA3vM4gdvUFi-6" value="" style="rhombus;whiteSpace=wrap;html=1;" vertex="1" parent="1">
          <mxGeometry x="477.5" y="670" width="55" height="50" as="geometry" />
        </mxCell>
        <mxCell id="bay-avK2EA3vM4gdvUFi-7" value="" style="rhombus;whiteSpace=wrap;html=1;" vertex="1" parent="1">
          <mxGeometry x="335" y="490" width="50" height="50" as="geometry" />
        </mxCell>
        <mxCell id="bay-avK2EA3vM4gdvUFi-8" value="" style="rhombus;whiteSpace=wrap;html=1;" vertex="1" parent="1">
          <mxGeometry x="460" y="525" width="50" height="50" as="geometry" />
        </mxCell>
        <mxCell id="bay-avK2EA3vM4gdvUFi-9" value="" style="rhombus;whiteSpace=wrap;html=1;" vertex="1" parent="1">
          <mxGeometry x="510" y="180" width="50" height="50" as="geometry" />
        </mxCell>
        <mxCell id="bay-avK2EA3vM4gdvUFi-10" value="" style="rhombus;whiteSpace=wrap;html=1;" vertex="1" parent="1">
          <mxGeometry x="465" y="300" width="50" height="50" as="geometry" />
        </mxCell>
        <mxCell id="bay-avK2EA3vM4gdvUFi-11" value="" style="endArrow=none;html=1;entryX=0;entryY=0.5;entryDx=0;entryDy=0;exitX=1;exitY=0.25;exitDx=0;exitDy=0;" edge="1" parent="1" source="xHp5DNosXy4V1_-R_v9--1" target="bay-avK2EA3vM4gdvUFi-10">
          <mxGeometry width="50" height="50" relative="1" as="geometry">
            <mxPoint x="380" y="380" as="sourcePoint" />
            <mxPoint x="430" y="330" as="targetPoint" />
          </mxGeometry>
        </mxCell>
        <mxCell id="bay-avK2EA3vM4gdvUFi-12" value="" style="endArrow=none;html=1;entryX=0.75;entryY=1;entryDx=0;entryDy=0;exitX=0.5;exitY=0;exitDx=0;exitDy=0;" edge="1" parent="1" source="bay-avK2EA3vM4gdvUFi-7" target="xHp5DNosXy4V1_-R_v9--1">
          <mxGeometry width="50" height="50" relative="1" as="geometry">
            <mxPoint x="380" y="380" as="sourcePoint" />
            <mxPoint x="430" y="330" as="targetPoint" />
          </mxGeometry>
        </mxCell>
        <mxCell id="bay-avK2EA3vM4gdvUFi-13" value="" style="endArrow=none;html=1;exitX=1;exitY=1;exitDx=0;exitDy=0;entryX=0.5;entryY=0;entryDx=0;entryDy=0;" edge="1" parent="1" source="bay-avK2EA3vM4gdvUFi-7" target="bay-avK2EA3vM4gdvUFi-4">
          <mxGeometry width="50" height="50" relative="1" as="geometry">
            <mxPoint x="380" y="490" as="sourcePoint" />
            <mxPoint x="430" y="440" as="targetPoint" />
          </mxGeometry>
        </mxCell>
        <mxCell id="bay-avK2EA3vM4gdvUFi-14" value="" style="endArrow=none;html=1;exitX=0.5;exitY=1;exitDx=0;exitDy=0;entryX=0.4;entryY=0;entryDx=0;entryDy=0;entryPerimeter=0;" edge="1" parent="1" source="bay-avK2EA3vM4gdvUFi-7" target="bay-avK2EA3vM4gdvUFi-4">
          <mxGeometry width="50" height="50" relative="1" as="geometry">
            <mxPoint x="380" y="490" as="sourcePoint" />
            <mxPoint x="430" y="440" as="targetPoint" />
          </mxGeometry>
        </mxCell>
        <mxCell id="bay-avK2EA3vM4gdvUFi-15" value="" style="endArrow=none;html=1;entryX=0;entryY=0.5;entryDx=0;entryDy=0;exitX=1;exitY=0;exitDx=0;exitDy=0;" edge="1" parent="1" source="bay-avK2EA3vM4gdvUFi-4" target="bay-avK2EA3vM4gdvUFi-8">
          <mxGeometry width="50" height="50" relative="1" as="geometry">
            <mxPoint x="380" y="490" as="sourcePoint" />
            <mxPoint x="430" y="440" as="targetPoint" />
          </mxGeometry>
        </mxCell>
        <mxCell id="bay-avK2EA3vM4gdvUFi-16" value="" style="endArrow=none;html=1;entryX=0.5;entryY=0;entryDx=0;entryDy=0;exitX=0;exitY=0.75;exitDx=0;exitDy=0;" edge="1" parent="1" source="bay-avK2EA3vM4gdvUFi-3" target="bay-avK2EA3vM4gdvUFi-8">
          <mxGeometry width="50" height="50" relative="1" as="geometry">
            <mxPoint x="380" y="530" as="sourcePoint" />
            <mxPoint x="430" y="480" as="targetPoint" />
          </mxGeometry>
        </mxCell>
        <mxCell id="bay-avK2EA3vM4gdvUFi-17" value="" style="endArrow=none;html=1;entryX=0.64;entryY=0.14;entryDx=0;entryDy=0;entryPerimeter=0;exitX=0;exitY=1;exitDx=0;exitDy=0;" edge="1" parent="1" source="bay-avK2EA3vM4gdvUFi-3" target="bay-avK2EA3vM4gdvUFi-8">
          <mxGeometry width="50" height="50" relative="1" as="geometry">
            <mxPoint x="380" y="530" as="sourcePoint" />
            <mxPoint x="430" y="480" as="targetPoint" />
          </mxGeometry>
        </mxCell>
        <mxCell id="bay-avK2EA3vM4gdvUFi-18" value="" style="endArrow=none;html=1;entryX=0;entryY=0;entryDx=0;entryDy=0;exitX=1;exitY=1;exitDx=0;exitDy=0;" edge="1" parent="1" source="bay-avK2EA3vM4gdvUFi-4" target="bay-avK2EA3vM4gdvUFi-6">
          <mxGeometry width="50" height="50" relative="1" as="geometry">
            <mxPoint x="380" y="530" as="sourcePoint" />
            <mxPoint x="430" y="480" as="targetPoint" />
          </mxGeometry>
        </mxCell>
        <mxCell id="bay-avK2EA3vM4gdvUFi-19" value="" style="endArrow=none;html=1;entryX=0;entryY=0;entryDx=0;entryDy=0;exitX=1;exitY=0.5;exitDx=0;exitDy=0;" edge="1" parent="1" source="bay-avK2EA3vM4gdvUFi-6" target="bay-avK2EA3vM4gdvUFi-5">
          <mxGeometry width="50" height="50" relative="1" as="geometry">
            <mxPoint x="380" y="530" as="sourcePoint" />
            <mxPoint x="430" y="480" as="targetPoint" />
          </mxGeometry>
        </mxCell>
        <mxCell id="bay-avK2EA3vM4gdvUFi-20" value="" style="endArrow=none;html=1;entryX=0;entryY=0.25;entryDx=0;entryDy=0;exitX=0.882;exitY=0.64;exitDx=0;exitDy=0;exitPerimeter=0;" edge="1" parent="1" source="bay-avK2EA3vM4gdvUFi-6" target="bay-avK2EA3vM4gdvUFi-5">
          <mxGeometry width="50" height="50" relative="1" as="geometry">
            <mxPoint x="380" y="530" as="sourcePoint" />
            <mxPoint x="540" y="730" as="targetPoint" />
          </mxGeometry>
        </mxCell>
        <mxCell id="bay-avK2EA3vM4gdvUFi-21" value="" style="endArrow=none;html=1;entryX=0;entryY=0.5;entryDx=0;entryDy=0;exitX=0.94;exitY=0.38;exitDx=0;exitDy=0;exitPerimeter=0;" edge="1" parent="1" source="bay-avK2EA3vM4gdvUFi-10" target="bay-avK2EA3vM4gdvUFi-2">
          <mxGeometry width="50" height="50" relative="1" as="geometry">
            <mxPoint x="380" y="440" as="sourcePoint" />
            <mxPoint x="430" y="390" as="targetPoint" />
          </mxGeometry>
        </mxCell>
        <mxCell id="bay-avK2EA3vM4gdvUFi-22" value="" style="endArrow=none;html=1;entryX=0.008;entryY=0.65;entryDx=0;entryDy=0;entryPerimeter=0;exitX=1;exitY=0.5;exitDx=0;exitDy=0;" edge="1" parent="1" source="bay-avK2EA3vM4gdvUFi-10" target="bay-avK2EA3vM4gdvUFi-2">
          <mxGeometry width="50" height="50" relative="1" as="geometry">
            <mxPoint x="380" y="440" as="sourcePoint" />
            <mxPoint x="430" y="390" as="targetPoint" />
          </mxGeometry>
        </mxCell>
        <mxCell id="bay-avK2EA3vM4gdvUFi-23" value="" style="endArrow=none;html=1;entryX=0;entryY=0.25;entryDx=0;entryDy=0;exitX=1;exitY=1;exitDx=0;exitDy=0;" edge="1" parent="1" source="bay-avK2EA3vM4gdvUFi-9" target="bay-avK2EA3vM4gdvUFi-2">
          <mxGeometry width="50" height="50" relative="1" as="geometry">
            <mxPoint x="380" y="360" as="sourcePoint" />
            <mxPoint x="430" y="310" as="targetPoint" />
          </mxGeometry>
        </mxCell>
        <mxCell id="bay-avK2EA3vM4gdvUFi-24" value="" style="endArrow=none;html=1;entryX=0;entryY=0;entryDx=0;entryDy=0;exitX=0.85;exitY=1;exitDx=0;exitDy=0;exitPerimeter=0;" edge="1" parent="1" source="bay-avK2EA3vM4gdvUFi-1" target="bay-avK2EA3vM4gdvUFi-9">
          <mxGeometry width="50" height="50" relative="1" as="geometry">
            <mxPoint x="380" y="360" as="sourcePoint" />
            <mxPoint x="430" y="310" as="targetPoint" />
          </mxGeometry>
        </mxCell>
        <mxCell id="bay-avK2EA3vM4gdvUFi-25" value="" style="endArrow=none;html=1;entryX=0.14;entryY=0.38;entryDx=0;entryDy=0;entryPerimeter=0;exitX=0.75;exitY=1;exitDx=0;exitDy=0;" edge="1" parent="1" source="bay-avK2EA3vM4gdvUFi-1" target="bay-avK2EA3vM4gdvUFi-9">
          <mxGeometry width="50" height="50" relative="1" as="geometry">
            <mxPoint x="380" y="360" as="sourcePoint" />
            <mxPoint x="430" y="310" as="targetPoint" />
          </mxGeometry>
        </mxCell>
        <mxCell id="bay-avK2EA3vM4gdvUFi-26" value="1" style="text;html=1;strokeColor=none;fillColor=none;align=center;verticalAlign=middle;whiteSpace=wrap;rounded=0;" vertex="1" parent="1">
          <mxGeometry x="360" y="340" width="40" height="20" as="geometry" />
        </mxCell>
        <mxCell id="bay-avK2EA3vM4gdvUFi-27" value="1" style="text;html=1;strokeColor=none;fillColor=none;align=center;verticalAlign=middle;whiteSpace=wrap;rounded=0;" vertex="1" parent="1">
          <mxGeometry x="335" y="405" width="40" height="20" as="geometry" />
        </mxCell>
        <mxCell id="bay-avK2EA3vM4gdvUFi-28" value="M" style="text;html=1;strokeColor=none;fillColor=none;align=center;verticalAlign=middle;whiteSpace=wrap;rounded=0;" vertex="1" parent="1">
          <mxGeometry x="515" y="280" width="40" height="20" as="geometry" />
        </mxCell>
        <mxCell id="bay-avK2EA3vM4gdvUFi-29" value="M" style="text;html=1;strokeColor=none;fillColor=none;align=center;verticalAlign=middle;whiteSpace=wrap;rounded=0;" vertex="1" parent="1">
          <mxGeometry x="380" y="570" width="40" height="20" as="geometry" />
        </mxCell>
        <mxCell id="bay-avK2EA3vM4gdvUFi-30" value="1" style="text;html=1;strokeColor=none;fillColor=none;align=center;verticalAlign=middle;whiteSpace=wrap;rounded=0;" vertex="1" parent="1">
          <mxGeometry x="445" y="575" width="40" height="20" as="geometry" />
        </mxCell>
        <mxCell id="bay-avK2EA3vM4gdvUFi-31" value="1" style="text;html=1;strokeColor=none;fillColor=none;align=center;verticalAlign=middle;whiteSpace=wrap;rounded=0;" vertex="1" parent="1">
          <mxGeometry x="450" y="650" width="40" height="20" as="geometry" />
        </mxCell>
        <mxCell id="bay-avK2EA3vM4gdvUFi-32" value="1" style="text;html=1;strokeColor=none;fillColor=none;align=center;verticalAlign=middle;whiteSpace=wrap;rounded=0;" vertex="1" parent="1">
          <mxGeometry x="567.5" y="215" width="40" height="20" as="geometry" />
        </mxCell>
        <mxCell id="bay-avK2EA3vM4gdvUFi-33" value="M" style="text;html=1;strokeColor=none;fillColor=none;align=center;verticalAlign=middle;whiteSpace=wrap;rounded=0;" vertex="1" parent="1">
          <mxGeometry x="470" y="495" width="40" height="20" as="geometry" />
        </mxCell>
        <mxCell id="bay-avK2EA3vM4gdvUFi-34" value="M" style="text;html=1;strokeColor=none;fillColor=none;align=center;verticalAlign=middle;whiteSpace=wrap;rounded=0;" vertex="1" parent="1">
          <mxGeometry x="532.5" y="700" width="40" height="20" as="geometry" />
        </mxCell>
        <mxCell id="bay-avK2EA3vM4gdvUFi-36" value="M" style="text;html=1;strokeColor=none;fillColor=none;align=center;verticalAlign=middle;whiteSpace=wrap;rounded=0;" vertex="1" parent="1">
          <mxGeometry x="470" y="180" width="40" height="20" as="geometry" />
        </mxCell>
      </root>
    </mxGraphModel>
  </diagram>
</mxfile>
